<?xml version="1.0" encoding="UTF-8" standalone="no"?>
<!-- Created with Inkscape (http://www.inkscape.org/) -->

<svg
   width="16"
   height="16"
   viewBox="0 0 16 16"
   version="1.1"
   id="svg1"
   xmlns="http://www.w3.org/2000/svg"
   xmlns:svg="http://www.w3.org/2000/svg">
  <defs
     id="defs1" />
  <g
     id="layer1">
    <path
       id="rect2"
       style="fill:#fc7f7f;stroke:#000000;stroke-width:0"
       d="M 8,1 C 7.4460006,1 7,1.4460006 7,2 V 8 C 7,8.2769991 6.7769991,8.5 6.5,8.5 6.2230009,8.5 6,8.2769991 6,8 V 3 C 6,2.4460006 5.5539994,2 5,2 4.4460006,2 4,2.4460006 4,3 v 7.5 C 4,10.777 3.7769994,11 3.5,11 3.2230006,11 3,10.777 3,10.5 V 7 C 3,6.4460006 2.5539994,6 2,6 1.4460006,6 1,6.4460006 1,7 v 4 c 0,0 1.2e-5,4 4,4 H 5.75 6 11 c 3.999984,0 4,-4 4,-4 V 9.75 5.1660156 C 15,4.519683 14.553999,4 14,4 13.446001,4 13,4.519683 13,5.1660156 V 8.5 C 13,8.7769991 12.777,9 12.5,9 12.223,9 12,8.7769991 12,8.5 V 8 3 C 12,2.4460006 11.553999,2 11,2 10.446001,2 10,2.4460006 10,3 V 8 C 10,8.2769991 9.7769991,8.5 9.5,8.5 9.2230009,8.5 9,8.2769991 9,8 V 2 C 9,1.4460006 8.5539994,1 8,1 Z" />
  </g>
</svg>
