<?xml version="1.0" encoding="UTF-8" standalone="no"?>
<!-- Created with Inkscape (http://www.inkscape.org/) -->

<svg
   width="16"
   height="16"
   viewBox="0 0 16 16"
   version="1.1"
   id="svg1"
   xmlns="http://www.w3.org/2000/svg"
   xmlns:svg="http://www.w3.org/2000/svg">
  <defs
     id="defs1" />
  <g
     id="layer1">
    <path
       d="M 5,7 A 2.4142136,2.4142136 0 0 0 3.2929688,7.7070312 L 1.7070312,9.2929688 A 2.4142136,2.4142136 0 0 0 1,11 v 3 a 1,1 0 0 0 1,1 h 9 a 2.4142136,2.4142136 0 0 0 1.707031,-0.707031 l 1.585938,-1.585938 A 2.4142136,2.4142136 0 0 0 15,11 V 8 A 1,1 0 0 0 14,7 Z M 4.4101562,8 h 8.8828128 l -2,2 H 2.4140625 Z M 14,8.7050781 v 2.8808599 l -2,2 v -2.878907 z"
       style="fill:#fc7f7f;stroke-linejoin:round"
       id="path95" />
    <rect
       style="fill:#fc7f7f;fill-opacity:1;stroke:none;stroke-width:0.707107;stroke-linecap:butt;stroke-linejoin:miter;stroke-miterlimit:4.8;stroke-dasharray:none;stroke-opacity:1"
       id="rect97"
       width="1"
       height="5"
       x="7.5"
       y="1"
       ry="0.5" />
    <rect
       style="fill:#fc7f7f;fill-opacity:1;stroke:none;stroke-width:0.707107;stroke-linecap:butt;stroke-linejoin:miter;stroke-miterlimit:4.8;stroke-dasharray:none;stroke-opacity:1"
       id="rect98"
       width="4"
       height="1"
       x="6.0581555"
       y="-5.3217463"
       ry="0.5"
       transform="rotate(46.946616)" />
    <rect
       style="fill:#fc7f7f;fill-opacity:1;stroke:none;stroke-width:0.707107;stroke-linecap:butt;stroke-linejoin:miter;stroke-miterlimit:4.8;stroke-dasharray:none;stroke-opacity:1"
       id="rect99"
       width="4"
       height="1"
       x="-4.8647165"
       y="6.369741"
       ry="0.5"
       transform="matrix(-0.68267949,0.73071795,0.73071795,0.68267949,0,0)" />
  </g>
</svg>
