<?xml version="1.0" encoding="UTF-8" standalone="no"?>
<!-- Created with Inkscape (http://www.inkscape.org/) -->

<svg
   width="16"
   height="16"
   viewBox="0 0 16 16"
   version="1.1"
   id="svg1"
   xmlns="http://www.w3.org/2000/svg"
   xmlns:svg="http://www.w3.org/2000/svg">
  <defs
     id="defs1" />
  <g
     id="layer1">
    <rect
       style="fill:#fc7f7f;stroke:#000000;stroke-width:0"
       id="rect12"
       width="2"
       height="8"
       x="7"
       y="7"
       ry="1" />
    <rect
       style="fill:#fc7f7f;stroke:#000000;stroke-width:0"
       id="rect13"
       width="2"
       height="8"
       x="7"
       y="7"
       ry="1" />
    <rect
       style="fill:#fc7f7f;stroke:#000000;stroke-width:0"
       id="rect13-6"
       width="2"
       height="8"
       x="2"
       y="4"
       ry="1" />
    <rect
       style="fill:#fc7f7f;stroke:#000000;stroke-width:0"
       id="rect13-6-1"
       width="2"
       height="8"
       x="12"
       y="4"
       ry="1" />
    <rect
       style="fill:#fc7f7f;stroke:#000000;stroke-width:0"
       id="rect16"
       width="7.8148293"
       height="2.0393376"
       x="7.029726"
       y="6.9498324"
       ry="1.0196688"
       transform="matrix(0.86113031,0.50838429,-0.49166231,0.87078595,0,0)" />
    <rect
       style="fill:#fc7f7f;stroke:#000000;stroke-width:0"
       id="rect17"
       width="7.8148293"
       height="2.0393376"
       x="-6.9029212"
       y="15.087303"
       ry="1.0196688"
       transform="matrix(-0.86113031,0.50838429,0.49166231,0.87078595,0,0)" />
    <rect
       style="fill:#fc7f7f;stroke:#000000;stroke-width:0"
       id="rect16-2"
       width="7.8148293"
       height="2.0393376"
       x="4.0794849"
       y="1.7852019"
       ry="1.0196688"
       transform="matrix(0.86113031,0.50838429,-0.49166231,0.87078595,0,0)" />
    <rect
       style="fill:#fc7f7f;stroke:#000000;stroke-width:0"
       id="rect17-7"
       width="7.8148293"
       height="2.0393376"
       x="-9.8584976"
       y="9.915947"
       ry="1.0196688"
       transform="matrix(-0.86113031,0.50838429,0.49166231,0.87078595,0,0)" />
    <rect
       style="fill:#fc7f7f;stroke:#000000;stroke-width:0"
       id="rect18"
       width="7.8148293"
       height="2.0393376"
       x="-6.9739652"
       y="4.7932897"
       ry="1.0196688"
       transform="matrix(-0.86113031,0.50838429,0.49166231,0.87078595,0,0)" />
    <rect
       style="fill:#fc7f7f;stroke:#000000;stroke-width:0"
       id="rect19"
       width="7.8148293"
       height="2.0393376"
       x="6.9612079"
       y="-3.3423758"
       ry="1.0196688"
       transform="matrix(0.86113031,0.50838429,-0.49166231,0.87078595,0,0)" />
  </g>
</svg>
