<?xml version="1.0" encoding="UTF-8" standalone="no"?>
<!-- Created with Inkscape (http://www.inkscape.org/) -->

<svg
   width="16"
   height="16"
   viewBox="0 0 16 16"
   version="1.1"
   id="svg1"
   xmlns="http://www.w3.org/2000/svg"
   xmlns:svg="http://www.w3.org/2000/svg">
  <defs
     id="defs1" />
  <g
     id="layer1">
    <rect
       style="fill:none;stroke:none;stroke-width:0;stroke-opacity:1"
       id="rect1"
       width="14"
       height="14"
       x="1"
       y="1"
       ry="2" />
    <path
       id="rect1-8"
       style="fill:#fc7f7f;fill-opacity:1;stroke:none;stroke-width:2.30769;stroke-dasharray:none"
       d="M 3.1542968,1 A 2.1537902,2.15379 0 0 0 1,3.1542969 V 12.845703 A 2.1537902,2.15379 0 0 0 3.1542968,15 H 12.845703 A 2.1537902,2.15379 0 0 0 15,12.845703 V 3.1542969 A 2.1537902,2.15379 0 0 0 12.845703,1 Z M 3,3 H 13 V 13 H 3 Z" />
    <rect
       style="fill:#fc7f7f;stroke:none;stroke-width:1;stroke-dasharray:none;stroke-opacity:1"
       id="rect2"
       width="8"
       height="1"
       x="4"
       y="4"
       ry="0" />
    <rect
       style="fill:#fc7f7f;stroke:none;stroke-width:1;stroke-dasharray:none;stroke-opacity:1"
       id="rect5"
       width="5"
       height="1"
       x="4"
       y="6" />
    <rect
       style="fill:#fc7f7f;stroke:none;stroke-width:1;stroke-dasharray:none;stroke-opacity:1"
       id="rect6"
       width="3"
       height="1"
       x="4"
       y="8" />
    <rect
       style="fill:#fc7f7f;stroke:none;stroke-width:1;stroke-dasharray:none;stroke-opacity:1"
       id="rect7"
       width="7"
       height="1"
       x="4"
       y="10" />
  </g>
</svg>
