<?xml version="1.0" encoding="UTF-8" standalone="no"?>
<!-- Created with Inkscape (http://www.inkscape.org/) -->

<svg
   width="16"
   height="16"
   viewBox="0 0 16 16"
   version="1.1"
   id="svg1"
   inkscape:version="1.4.3 (0d15f75, 2025-12-25)"
   sodipodi:docname="selector.svg"
   xml:space="preserve"
   xmlns:inkscape="http://www.inkscape.org/namespaces/inkscape"
   xmlns:sodipodi="http://sodipodi.sourceforge.net/DTD/sodipodi-0.dtd"
   xmlns="http://www.w3.org/2000/svg"
   xmlns:svg="http://www.w3.org/2000/svg"><sodipodi:namedview
     id="namedview1"
     pagecolor="#505050"
     bordercolor="#eeeeee"
     borderopacity="1"
     inkscape:showpageshadow="0"
     inkscape:pageopacity="0"
     inkscape:pagecheckerboard="0"
     inkscape:deskcolor="#505050"
     inkscape:document-units="px"
     showgrid="true"
     inkscape:zoom="50.5"
     inkscape:cx="8.6138614"
     inkscape:cy="7.039604"
     inkscape:window-width="1920"
     inkscape:window-height="1027"
     inkscape:window-x="-8"
     inkscape:window-y="399"
     inkscape:window-maximized="1"
     inkscape:current-layer="layer1"><inkscape:grid
       id="grid1"
       units="px"
       originx="0"
       originy="0"
       spacingx="1"
       spacingy="1"
       empcolor="#0099e5"
       empopacity="0.30196078"
       color="#0099e5"
       opacity="0.14901961"
       empspacing="4"
       enabled="true"
       visible="true" /></sodipodi:namedview><defs
     id="defs1"><rect
       x="1"
       y="-2"
       width="15.5625"
       height="24.59375"
       id="rect10" /></defs><g
     inkscape:label="Layer 1"
     inkscape:groupmode="layer"
     id="layer1"><path
       d="M 3,2 C 2.446,2 2,2.446 2,3 v 10 c 0,0.554 0.446,1 1,1 h 10 c 0.554,0 1,-0.446 1,-1 V 3 C 14,2.446 13.554,2 13,2 Z M 3,3 H 13 V 13 H 3 Z"
       style="fill:#975cf6;stroke-width:0.6;stroke-linecap:round;stroke-linejoin:round"
       id="path13" /><g
       style="fill:#975cf6"
       id="g19"
       transform="matrix(0.5,0,0,0.5,1.9586487,1.9999999)"><path
         fill-rule="evenodd"
         clip-rule="evenodd"
         d="M 9.11241,7.82201 C 9.44756,6.83666 10.5551,6 12,6 c 1.7865,0 3,1.24054 3,2.5 0,1.25946 -1.2135,2.5 -3,2.5 -0.5523,0 -1,0.4477 -1,1 v 2 c 0,0.5523 0.4477,1 1,1 0.5523,0 1,-0.4477 1,-1 V 12.9082 C 15.203,12.5001 17,10.7706 17,8.5 17,5.89347 14.6319,4 12,4 9.82097,4 7.86728,5.27185 7.21894,7.17799 7.0411,7.70085 7.3208,8.26889 7.84366,8.44673 8.36653,8.62458 8.93457,8.34488 9.11241,7.82201 Z M 12,20 c 0.8285,0 1.5,-0.6716 1.5,-1.5 0,-0.8284 -0.6715,-1.5 -1.5,-1.5 -0.8284,0 -1.5,0.6716 -1.5,1.5 0,0.8284 0.6716,1.5 1.5,1.5 z"
         fill="#000000"
         id="path1"
         style="fill:#975cf6" /></g></g></svg>
