<?xml version="1.0" encoding="UTF-8" standalone="no"?>
<!-- Created with Inkscape (http://www.inkscape.org/) -->

<svg
   width="16"
   height="16"
   viewBox="0 0 16 16"
   version="1.1"
   id="svg1"
   sodipodi:docname="PowerData.svg"
   inkscape:version="1.4.3 (0d15f75, 2025-12-25)"
   xmlns:inkscape="http://www.inkscape.org/namespaces/inkscape"
   xmlns:sodipodi="http://sodipodi.sourceforge.net/DTD/sodipodi-0.dtd"
   xmlns="http://www.w3.org/2000/svg"
   xmlns:svg="http://www.w3.org/2000/svg">
  <sodipodi:namedview
     id="namedview1"
     pagecolor="#505050"
     bordercolor="#eeeeee"
     borderopacity="1"
     inkscape:showpageshadow="0"
     inkscape:pageopacity="0"
     inkscape:pagecheckerboard="0"
     inkscape:deskcolor="#505050"
     inkscape:document-units="px"
     showgrid="true"
     inkscape:zoom="32"
     inkscape:cx="6.640625"
     inkscape:cy="11.140625"
     inkscape:window-width="1920"
     inkscape:window-height="1027"
     inkscape:window-x="-8"
     inkscape:window-y="399"
     inkscape:window-maximized="1"
     inkscape:current-layer="layer1">
    <inkscape:grid
       id="grid1"
       units="px"
       originx="0"
       originy="0"
       spacingx="1"
       spacingy="1"
       empcolor="#0099e5"
       empopacity="0.30196078"
       color="#0099e5"
       opacity="0.14901961"
       empspacing="4"
       enabled="true"
       visible="true" />
  </sodipodi:namedview>
  <defs
     id="defs1">
    <inkscape:path-effect
       effect="fillet_chamfer"
       id="path-effect9"
       is_visible="true"
       lpeversion="1"
       nodesatellites_param="F,0,0,1,0,2,0,1 @ F,0,0,1,0,2,0,1 @ F,0,0,1,0,2,0,1 @ F,0,0,1,0,2,0,1"
       radius="2"
       unit="px"
       method="auto"
       mode="F"
       chamfer_steps="1"
       flexible="false"
       use_knot_distance="true"
       apply_no_radius="true"
       apply_with_radius="true"
       only_selected="false"
       hide_knots="false" />
    <inkscape:path-effect
       effect="bspline"
       id="path-effect8"
       is_visible="true"
       lpeversion="1.3"
       weight="15"
       steps="2"
       helper_size="0"
       apply_no_weight="true"
       apply_with_weight="true"
       only_selected="false"
       uniform="false" />
  </defs>
  <g
     inkscape:label="Layer 1"
     inkscape:groupmode="layer"
     id="layer1">
    <path
       id="path13"
       style="fill:#e0e0e0;stroke:#8da5f3;stroke-width:0;stroke-linecap:round;stroke-linejoin:round"
       d="M 7.4921875 1.2792969 C 7.4745775 1.2796439 7.4568531 1.2810031 7.4394531 1.2832031 C 7.4213131 1.2854031 7.4022456 1.2888687 7.3847656 1.2929688 L 7.3828125 1.2929688 L 7.3808594 1.2929688 L 7.3789062 1.2949219 C 7.3609862 1.2993219 7.3432519 1.3043169 7.3261719 1.3105469 L 7.3242188 1.3105469 L 7.3242188 1.3125 L 7.3222656 1.3125 C 7.2821056 1.32764 7.2453555 1.3486469 7.2109375 1.3730469 C 7.1924875 1.3861269 7.1746631 1.4006056 7.1582031 1.4160156 C 7.1417931 1.4313656 7.1255381 1.4474038 7.1113281 1.4648438 L 7.109375 1.4667969 L 7.109375 1.46875 C 7.093885 1.48811 7.0808794 1.5077169 7.0683594 1.5292969 L 7.0664062 1.53125 C 7.0596062 1.54312 7.052695 1.5558994 7.046875 1.5683594 L 4.0683594 6.7285156 C 4.0189824 6.8142017 3.9982991 6.908221 4.0019531 7 L 4 7 L 4 7.5 C 4 7.5073117 3.9993804 7.5142688 4 7.5214844 L 4 8 C 4 8.554 4.446 9 5 9 L 8 9 L 8 14.169922 C 7.99637 14.204292 7.9984931 14.237512 8.0019531 14.271484 C 8.0053431 14.304724 8.0115834 14.337311 8.0214844 14.369141 C 8.0262244 14.384361 8.0328815 14.399333 8.0390625 14.414062 C 8.0578805 14.458903 8.0816354 14.500924 8.1132812 14.539062 C 8.1434314 14.575393 8.1796593 14.607326 8.2207031 14.634766 C 8.2299731 14.640966 8.2382489 14.648637 8.2480469 14.654297 L 8.25 14.65625 L 8.2519531 14.658203 L 8.2539062 14.658203 L 8.2558594 14.658203 L 8.2578125 14.658203 L 8.2597656 14.660156 L 8.2617188 14.660156 C 8.3353886 14.699846 8.4138161 14.719793 8.4921875 14.720703 C 8.4947775 14.720733 8.49741 14.720714 8.5 14.720703 C 8.50268 14.720703 8.5051525 14.720745 8.5078125 14.720703 C 8.5254245 14.720356 8.5431439 14.718997 8.5605469 14.716797 C 8.5786909 14.714597 8.5977554 14.711131 8.6152344 14.707031 L 8.6171875 14.707031 L 8.6191406 14.707031 L 8.6210938 14.705078 C 8.6390087 14.700678 8.6567431 14.695683 8.6738281 14.689453 L 8.6757812 14.689453 L 8.6757812 14.6875 L 8.6777344 14.6875 C 8.7178924 14.67236 8.7546464 14.651353 8.7890625 14.626953 C 8.8075105 14.613873 8.8253309 14.599394 8.8417969 14.583984 C 8.8582059 14.568634 8.8744609 14.552596 8.8886719 14.535156 L 8.890625 14.533203 L 8.890625 14.53125 C 8.906119 14.51189 8.9191296 14.492283 8.9316406 14.470703 L 8.9335938 14.46875 C 8.9403837 14.45688 8.947301 14.444101 8.953125 14.431641 L 11.931641 9.2714844 C 11.981111 9.1857983 12.001701 9.091779 11.998047 9 L 12 9 L 12 8 C 12 7.446 11.554 7 11 7 L 8 7 L 8 1.8300781 C 8.0036 1.7957081 8.0014469 1.7624876 7.9980469 1.7285156 C 7.9946469 1.6952756 7.9884456 1.6626894 7.9785156 1.6308594 C 7.9738156 1.6156394 7.9671175 1.6006675 7.9609375 1.5859375 C 7.9421175 1.5410975 7.9183687 1.4990775 7.8867188 1.4609375 C 7.8565688 1.4246075 7.8203389 1.3926744 7.7792969 1.3652344 C 7.7699969 1.3590344 7.7617431 1.3513631 7.7519531 1.3457031 L 7.75 1.34375 L 7.7480469 1.3417969 L 7.7460938 1.3417969 L 7.7441406 1.3417969 L 7.7421875 1.3417969 L 7.7402344 1.3398438 L 7.7382812 1.3398438 C 7.6646113 1.3001537 7.5861835 1.2802069 7.5078125 1.2792969 C 7.5052125 1.2792669 7.5026 1.2792859 7.5 1.2792969 C 7.4973 1.2792969 7.4947875 1.2792549 7.4921875 1.2792969 z " />
  </g>
</svg>
